<svg width="82" height="64" viewBox="0 0 82 64" fill="none" xmlns="http://www.w3.org/2000/svg">
<g clip-path="url(#clip0_24_100)">
<rect x="17.8431" y="12.0106" width="46" height="40" fill="white"/>
<path d="M17.5246 0.0106354C12.9419 0.0106354 9.55105 4.02156 9.70283 8.37143C9.84848 12.5505 9.65927 17.9628 8.29666 22.3766C6.92996 26.8034 4.61856 29.6076 0.843136 29.9677V34.0323C4.61856 34.3924 6.92996 37.1966 8.29666 41.6234C9.65927 46.0372 9.84848 51.4495 9.70283 55.6286C9.55105 59.9778 12.9419 63.9894 17.5252 63.9894H64.4816C69.0642 63.9894 72.4544 59.9784 72.3026 55.6286C72.157 51.4495 72.3462 46.0372 73.7088 41.6234C75.0762 37.1966 77.3814 34.3924 81.1569 34.0323V29.9677C77.3814 29.6076 75.0762 26.8034 73.7088 22.3766C72.3462 17.9635 72.157 12.5505 72.3026 8.37143C72.4544 4.02224 69.0642 0.0106354 64.4816 0.0106354H17.5239H17.5246ZM55.2931 39.3936C55.2931 45.3831 50.8255 49.0156 43.4115 49.0156H30.7906C30.0388 49.0156 29.4294 48.4062 29.4294 47.6544V16.3456C29.4294 15.5938 30.0388 14.9844 30.7906 14.9844H43.3393C49.5214 14.9844 53.5786 18.3331 53.5786 23.4745C53.5786 27.0832 50.8493 30.3141 47.372 30.8797V31.0682C52.1058 31.5875 55.2931 34.8654 55.2931 39.3936ZM42.0352 19.2995H34.839V29.464H40.8999C45.5854 29.464 48.169 27.5773 48.169 24.2048C48.169 21.0447 45.9475 19.2995 42.0352 19.2995ZM34.839 33.4974V44.6991H42.3C47.178 44.6991 49.7624 42.7416 49.7624 39.0628C49.7624 35.3834 47.1059 33.4967 41.9862 33.4967H34.839V33.4974Z" fill="#7E13F8"/>
</g>
<defs>
<clipPath id="clip0_24_100">
<rect width="80.3137" height="63.9787" fill="white" transform="translate(0.843136 0.0106354)"/>
</clipPath>
</defs>
</svg>
