<svg width="58" height="64" viewBox="0 0 58 64" fill="none" xmlns="http://www.w3.org/2000/svg">
<path d="M57.216 0L52.0749 57.5933L28.9655 64L5.91965 57.6023L0.783997 0H57.216Z" fill="#264DE4"/>
<path d="M29 59.103L47.6736 53.926L52.067 4.70984H29V59.103Z" fill="#2965F1"/>
<path d="M29 26.0737H12.5574L13.1906 33.1383H29V26.0737Z" fill="#EBEBEB"/>
<path d="M29 11.7747H28.9756H11.2851L11.9273 18.8394H29V11.7747Z" fill="#EBEBEB"/>
<path d="M13.5062 36.6708L14.496 47.7634L28.9675 51.7808L29 51.7718V44.4215L28.969 44.4298L21.101 42.3053L20.5981 36.6708H16.7748H13.5062Z" fill="#EBEBEB"/>
<path d="M37.675 33.1384L36.8549 42.3008L28.9756 44.4274V51.7774L43.4586 47.7634L43.5649 46.5699L45.225 27.9708L45.3974 26.0738L46.6728 11.7747H28.9756V18.8394H38.9305L38.2876 26.0738H28.9756V33.1384H37.675Z" fill="white"/>
</svg>
