<svg width="44" height="64" viewBox="0 0 44 64" fill="none" xmlns="http://www.w3.org/2000/svg">
<g clip-path="url(#clip0_24_30)">
<path d="M11.3333 64C17.2213 64 22 59.2213 22 53.3333V42.6667H11.3333C5.44532 42.6667 0.666656 47.4453 0.666656 53.3333C0.666656 59.2213 5.44532 64 11.3333 64Z" fill="#0ACF83"/>
<path d="M0.666656 32C0.666656 26.112 5.44532 21.3333 11.3333 21.3333H22V42.6667H11.3333C5.44532 42.6667 0.666656 37.888 0.666656 32Z" fill="#A259FF"/>
<path d="M0.666656 10.6667C0.666656 4.77867 5.44532 0 11.3333 0H22V21.3333H11.3333C5.44532 21.3333 0.666656 16.5547 0.666656 10.6667Z" fill="#F24E1E"/>
<path d="M22 0H32.6667C38.5547 0 43.3333 4.77867 43.3333 10.6667C43.3333 16.5547 38.5547 21.3333 32.6667 21.3333H22V0Z" fill="#FF7262"/>
<path d="M43.3333 32C43.3333 37.888 38.5547 42.6667 32.6667 42.6667C26.7787 42.6667 22 37.888 22 32C22 26.112 26.7787 21.3333 32.6667 21.3333C38.5547 21.3333 43.3333 26.112 43.3333 32Z" fill="#1ABCFE"/>
</g>
<defs>
<clipPath id="clip0_24_30">
<rect width="42.6667" height="64" fill="white" transform="translate(0.666656)"/>
</clipPath>
</defs>
</svg>
