<svg width="72" height="64" viewBox="0 0 72 64" fill="none" xmlns="http://www.w3.org/2000/svg">
<g clip-path="url(#clip0_24_118)">
<path d="M59.1532 20.7224C58.4078 20.4658 57.6353 20.2231 56.84 19.9935C56.9707 19.46 57.0907 18.9334 57.1974 18.4157C58.9485 9.91576 57.8035 3.06814 53.894 0.813612C50.1452 -1.34818 44.0144 0.905835 37.8226 6.29439C37.2272 6.81255 36.6301 7.36116 36.0333 7.93611C35.6356 7.55571 35.2386 7.1881 34.8426 6.83647C28.3533 1.07467 21.8489 -1.35343 17.9432 0.907625C14.198 3.07569 13.0889 9.5131 14.6651 17.5686C14.8174 18.3466 14.9953 19.1412 15.1965 19.9491C14.2759 20.2104 13.3872 20.489 12.5369 20.7854C4.92895 23.4378 0.0701904 27.5949 0.0701904 31.9068C0.0701904 36.3602 5.28607 40.8271 13.2103 43.5355C13.8357 43.7493 14.4845 43.9514 15.1532 44.1432C14.9362 45.017 14.7474 45.8732 14.5889 46.7083C13.086 54.624 14.2597 60.9093 17.9949 63.0637C21.853 65.2886 28.328 63.0017 34.6331 57.4903C35.1314 57.0547 35.6315 56.5926 36.1325 56.1084C36.7819 56.7337 37.4303 57.3256 38.0752 57.8807C44.1824 63.1361 50.2142 65.2582 53.9459 63.0978C57.8002 60.8666 59.0528 54.1147 57.4266 45.8998C57.3024 45.2724 57.1579 44.6315 56.9955 43.9791C57.4503 43.8447 57.8967 43.7059 58.3319 43.5616C66.5699 40.8322 71.9298 36.4197 71.9298 31.9068C71.9298 27.5793 66.9144 23.3942 59.1532 20.7224ZM57.3665 40.6477C56.9735 40.7778 56.5704 40.9036 56.1595 41.0255C55.2501 38.1463 54.0227 35.0848 52.5206 31.9218C53.954 28.834 55.134 25.8117 56.0179 22.9512C56.753 23.164 57.4665 23.3883 58.154 23.6251C64.8038 25.9143 68.86 29.2989 68.86 31.9068C68.86 34.6847 64.4794 38.2909 57.3665 40.6477ZM54.4151 46.496C55.1342 50.1285 55.2369 53.4127 54.7606 55.9801C54.3326 58.2871 53.4719 59.8252 52.4077 60.4412C50.1431 61.752 45.3002 60.0481 40.0772 55.5536C39.4785 55.0384 38.8754 54.4883 38.2704 53.906C40.2952 51.6915 42.3189 49.1171 44.2939 46.258C47.7678 45.9497 51.0498 45.4457 54.0261 44.7577C54.1727 45.349 54.3029 45.929 54.4151 46.496ZM24.5688 60.2146C22.3562 60.996 20.594 61.0184 19.5288 60.4042C17.2621 59.0969 16.3198 54.0503 17.6051 47.2809C17.7524 46.5056 17.9276 45.7092 18.1296 44.8952C21.0733 45.5461 24.3312 46.0146 27.8134 46.2968C29.8018 49.0946 31.8839 51.6662 33.9821 53.9179C33.5237 54.3605 33.0671 54.7818 32.613 55.1789C29.8249 57.6159 27.031 59.345 24.5688 60.2146ZM14.2031 40.6307C10.6992 39.4331 7.8055 37.8766 5.82201 36.1781C4.03972 34.6517 3.13988 33.1364 3.13988 31.9068C3.13988 29.2902 7.04099 25.9526 13.5473 23.6842C14.3368 23.4089 15.1632 23.1495 16.0209 22.9058C16.9201 25.8309 18.0996 28.889 19.5231 31.9815C18.0812 35.1199 16.8849 38.2268 15.9769 41.1861C15.3654 41.0104 14.7731 40.8254 14.2031 40.6307ZM17.6778 16.979C16.3273 10.0773 17.2242 4.87089 19.4812 3.56443C21.8852 2.17265 27.2013 4.15703 32.8042 9.13206C33.1623 9.45004 33.5219 9.78286 33.8825 10.1272C31.7946 12.3691 29.7316 14.9214 27.7609 17.7026C24.3813 18.0159 21.1462 18.5191 18.1718 19.1929C17.9848 18.4407 17.8191 17.7016 17.6778 16.979ZM48.6748 24.633C47.9637 23.4048 47.2338 22.2057 46.4896 21.0393C48.7824 21.3291 50.9791 21.7138 53.042 22.1847C52.4227 24.1696 51.6507 26.2449 50.7421 28.3724C50.0902 27.1349 49.4008 25.8871 48.6748 24.633ZM36.0343 12.3211C37.4502 13.8551 38.8682 15.5678 40.263 17.4261C38.8575 17.3597 37.4346 17.3252 36 17.3252C34.5789 17.3252 33.1666 17.3589 31.7698 17.4242C33.1659 15.5832 34.5962 13.8728 36.0343 12.3211ZM23.3128 24.6542C22.6025 25.8859 21.9259 27.1268 21.2843 28.3701C20.3904 26.25 19.6256 24.1652 19.0009 22.1522C21.0511 21.6934 23.2375 21.3182 25.5157 21.0339C24.761 22.211 24.025 23.4193 23.3128 24.6542ZM25.5813 42.9987C23.2275 42.7361 21.0083 42.3803 18.9585 41.9341C19.5932 39.8851 20.3749 37.7558 21.2878 35.5901C21.931 36.8325 22.6104 38.0739 23.325 39.3083C24.0529 40.5657 24.8072 41.7975 25.5813 42.9987ZM36.1192 51.7089C34.6643 50.1391 33.213 48.4026 31.7956 46.5348C33.1716 46.5887 34.5743 46.6164 36 46.6164C37.4647 46.6164 38.9126 46.5834 40.3378 46.5199C38.9385 48.4214 37.5256 50.1606 36.1192 51.7089ZM50.7714 35.4797C51.7318 37.6689 52.5415 39.787 53.1844 41.8011C51.1009 42.2764 48.8513 42.6592 46.4812 42.9437C47.2271 41.7616 47.9635 40.5418 48.6871 39.2872C49.4191 38.0178 50.1142 36.7465 50.7714 35.4797ZM46.028 37.7535C44.9047 39.7012 43.7514 41.5605 42.5807 43.3155C40.4483 43.468 38.2453 43.5465 36 43.5465C33.7638 43.5465 31.5886 43.4771 29.4939 43.3411C28.276 41.5631 27.0977 39.6983 25.9815 37.7703C24.8683 35.8476 23.844 33.9086 22.9157 31.9805C23.8438 30.0479 24.8656 28.1068 25.9724 26.1875L25.9722 26.1879C27.0819 24.2635 28.2499 22.4078 29.4566 20.6408C31.5937 20.4793 33.7851 20.395 35.9999 20.395C38.2246 20.395 40.419 20.4799 42.5555 20.6429C43.7438 22.3969 44.9038 24.2466 46.0179 26.1712C47.1446 28.1175 48.1797 30.0457 49.1157 31.9369C48.1825 33.8605 47.1497 35.8082 46.028 37.7535ZM52.3606 3.4731C54.767 4.86079 55.7028 10.4573 54.1909 17.7961C54.0944 18.2644 53.9858 18.7414 53.8679 19.2247C50.8866 18.5368 47.6492 18.0249 44.2598 17.707C42.2852 14.8951 40.2391 12.3389 38.1852 10.1258C38.7374 9.59458 39.2888 9.08806 39.8379 8.61006C45.1431 3.99318 50.1015 2.17035 52.3606 3.4731ZM36 25.49C39.5439 25.49 42.4168 28.3628 42.4168 31.9068C42.4168 35.4507 39.5439 38.3236 36 38.3236C32.4562 38.3236 29.5832 35.4507 29.5832 31.9068C29.5832 28.3628 32.4562 25.49 36 25.49Z" fill="#00D8FF"/>
</g>
<defs>
<clipPath id="clip0_24_118">
<rect width="71.8596" height="64" fill="white" transform="translate(0.0701904)"/>
</clipPath>
</defs>
</svg>
