<svg width="41" height="40" viewBox="0 0 41 40" fill="none" xmlns="http://www.w3.org/2000/svg">
<path d="M13.1766 18.5118V15.8368C13.1766 15.6785 13.1766 15.6151 13.3833 15.6151C15.155 15.6151 16.595 15.5101 17.31 15.9318C18.0266 16.3518 18.0566 16.9318 18.0683 17.1051C18.0816 17.2785 18.075 17.5268 17.7416 18.1318C17.4083 18.7368 15.9166 18.7485 14.84 18.7485H13.415C13.24 18.7485 13.1766 18.6851 13.1766 18.5118ZM18.0866 21.3151C18.2514 21.5259 18.369 21.7697 18.4315 22.0299C18.4939 22.2901 18.4997 22.5607 18.4485 22.8233C18.3973 23.0859 18.2903 23.3345 18.1347 23.5522C17.9791 23.7699 17.7786 23.9516 17.5466 24.0851C17.2055 24.2282 16.8398 24.3035 16.47 24.3068H13.3983C13.24 24.3068 13.1766 24.3068 13.1766 24.1018V20.9351C13.1766 20.7768 13.1766 20.7135 13.3833 20.7135H15.425C16.6916 20.7135 17.4833 20.6035 18.0866 21.3151Z" fill="white" fill-opacity="0.5"/>
<path d="M29.2349 19.8484C29.1501 19.6481 29.0212 19.4695 28.8579 19.3258C28.6946 19.1821 28.501 19.077 28.2915 19.0184C27.8729 18.9043 27.4349 18.8801 27.0062 18.9477C26.5776 19.0152 26.1681 19.1728 25.8049 19.4101C25.4425 19.7755 25.2086 20.2486 25.1382 20.7584C25.1382 20.9367 25.1382 20.9701 25.3499 20.9701H29.2999C29.4949 20.9701 29.4949 20.9701 29.4782 20.7251C29.4592 20.4189 29.3774 20.1201 29.2349 19.8484ZM29.2349 19.8484C29.1501 19.6481 29.0195 19.4695 28.8562 19.3258C28.6929 19.1821 28.501 19.077 28.2915 19.0184C27.8729 18.9043 27.4332 18.8801 27.0046 18.9477C26.5759 19.0152 26.1681 19.1728 25.8049 19.4101C25.4425 19.7755 25.2069 20.2486 25.1365 20.7584C25.1365 20.9367 25.1365 20.9701 25.3482 20.9701H29.2999C29.4949 20.9701 29.4949 20.9701 29.4782 20.7251C29.4592 20.4189 29.374 20.1201 29.2315 19.8484M31.0865 4.16675H11.5865C9.86264 4.16675 8.20934 4.85157 6.99035 6.07055C5.77137 7.28954 5.08655 8.94284 5.08655 10.6667V30.1667C5.08655 31.8907 5.77137 33.544 6.99035 34.7629C8.20934 35.9819 9.86264 36.6667 11.5865 36.6667H31.0865C32.8105 36.6667 34.4638 35.9819 35.6827 34.7629C36.9017 33.544 37.5865 31.8907 37.5865 30.1667V10.6667C37.5865 8.94284 36.9017 7.28954 35.6827 6.07055C34.4638 4.85157 32.8105 4.16675 31.0865 4.16675ZM24.7165 14.5167C24.7165 14.3884 24.7165 14.3384 24.8632 14.3384H30.1282V15.7051C30.1282 15.7051 30.1332 15.8017 30.0465 15.8017H24.9449C24.7165 15.8017 24.7165 15.8017 24.7165 15.5751V14.5167ZM19.8415 26.4617C17.8415 27.5501 14.4799 27.1117 10.4982 27.1117V13.6401H16.8515C18.4765 13.6401 20.4099 14.0467 20.9299 15.7684C21.1999 16.5204 21.1835 17.3455 20.8837 18.0861C20.584 18.8267 20.0219 19.4309 19.3049 19.7834C19.9658 20.028 20.5428 20.4568 20.9676 21.0191C21.3925 21.5814 21.6473 22.2536 21.702 22.9562C21.7567 23.6588 21.609 24.3623 21.2763 24.9836C20.9437 25.6049 20.44 26.1178 19.8249 26.4617H19.8415ZM31.9482 22.6267H25.4482C25.2699 22.6267 25.1065 22.7234 25.1382 22.9517C25.3332 23.9101 25.7715 24.9184 26.7649 25.0651C27.2894 25.2203 27.8508 25.1958 28.3598 24.9957C28.8689 24.7955 29.2966 24.431 29.5749 23.9601C29.5749 23.9601 29.6565 23.8617 29.7049 23.8617H31.8182C31.8182 23.8617 31.9482 23.8617 31.9149 23.9751C31.6935 24.6069 31.3636 25.1951 30.9399 25.7134C30.3749 26.2526 29.6933 26.6544 28.948 26.8877C28.2027 27.121 27.4136 27.1794 26.642 27.0586C25.8705 26.9377 25.1371 26.6407 24.4988 26.1906C23.8606 25.7406 23.3345 25.1496 22.9615 24.4634C22.731 24.0062 22.588 23.5099 22.5399 23.0001C22.25 21.7194 22.4716 20.3762 23.1574 19.2564C23.8432 18.1366 24.939 17.3289 26.2115 17.0051C29.8999 16.2084 32.2399 18.7434 32.2399 22.3184C32.2453 22.3602 32.2411 22.4027 32.2276 22.4426C32.214 22.4825 32.1915 22.5187 32.1617 22.5485C32.1319 22.5783 32.0956 22.6009 32.0557 22.6144C32.0158 22.628 31.9733 22.6322 31.9315 22.6267H31.9482ZM28.3082 19.0184C27.8896 18.9046 27.4517 18.8808 27.0232 18.9484C26.5949 19.0151 26.2115 19.0967 25.8215 19.4101C25.4315 19.7217 25.2249 20.2484 25.1549 20.7584C25.1549 20.9367 25.1549 20.9701 25.3665 20.9701H29.2999C29.4949 20.9701 29.4949 20.9701 29.4782 20.7251C29.4592 20.4189 29.3774 20.1201 29.2349 19.8484C29.1501 19.6481 29.0212 19.4695 28.8579 19.3258C28.6946 19.1821 28.501 19.077 28.2915 19.0184H28.3082Z" fill="white" fill-opacity="0.5"/>
</svg>
