<svg width="36" height="36" viewBox="0 0 36 36" fill="none" xmlns="http://www.w3.org/2000/svg">
<g id="Github" clip-path="url(#clip0_12_173)">
<path id="Vector" d="M18.0001 0.5C8.10442 0.5 0.0800018 8.52294 0.0800018 18.4201C0.0800018 26.3377 5.21467 33.055 12.3349 35.4245C13.2305 35.5904 13.5593 35.0358 13.5593 34.5625C13.5593 34.1351 13.5427 32.7235 13.5349 31.2261C8.54955 32.3101 7.49757 29.1118 7.49757 29.1118C6.6824 27.0404 5.50786 26.4897 5.50786 26.4897C3.88196 25.3775 5.63042 25.4003 5.63042 25.4003C7.42991 25.5267 8.37743 27.247 8.37743 27.247C9.97573 29.9866 12.5696 29.1946 13.5922 28.7367C13.7531 27.5785 14.2175 26.7879 14.73 26.3404C10.7497 25.8873 6.56548 24.3507 6.56548 17.4842C6.56548 15.5277 7.26551 13.9291 8.41186 12.6742C8.22579 12.2228 7.61241 10.4002 8.58545 7.93181C8.58545 7.93181 10.0903 7.45018 13.5148 9.76869C14.9442 9.37164 16.4772 9.17252 18.0001 9.1657C19.5231 9.17252 21.0573 9.37164 22.4894 9.76869C25.9097 7.45018 27.4125 7.93181 27.4125 7.93181C28.3879 10.4002 27.7742 12.2228 27.5881 12.6742C28.7372 13.9291 29.4324 15.5277 29.4324 17.4842C29.4324 24.367 25.2403 25.8825 21.2499 26.3262C21.8926 26.8823 22.4653 27.9728 22.4653 29.6447C22.4653 32.0425 22.4446 33.9722 22.4446 34.5625C22.4446 35.0393 22.7671 35.5981 23.6755 35.4222C30.7919 33.0499 35.92 26.3351 35.92 18.4201C35.92 8.52294 27.8968 0.5 18.0001 0.5ZM6.79168 26.0276C6.75221 26.1167 6.61215 26.1434 6.48454 26.0822C6.35457 26.0238 6.28157 25.9024 6.3237 25.8131C6.36228 25.7214 6.50265 25.6959 6.63232 25.7573C6.7626 25.8158 6.83679 25.9383 6.79168 26.0276ZM7.67315 26.8142C7.58769 26.8934 7.42062 26.8566 7.30726 26.7314C7.19004 26.6064 7.16808 26.4394 7.25473 26.3589C7.34287 26.2797 7.50489 26.3168 7.62241 26.4417C7.73962 26.5681 7.76247 26.734 7.67315 26.8142ZM8.27787 27.8205C8.16808 27.8968 7.98854 27.8252 7.87756 27.6659C7.76776 27.5065 7.76776 27.3154 7.87993 27.2389C7.99121 27.1623 8.16808 27.2311 8.28055 27.3893C8.39005 27.5513 8.39005 27.7424 8.27787 27.8205ZM9.30059 28.986C9.20237 29.0943 8.99316 29.0652 8.84003 28.9174C8.68335 28.7729 8.63973 28.5678 8.73825 28.4595C8.83766 28.3509 9.04806 28.3815 9.20237 28.5281C9.35786 28.6723 9.40534 28.8788 9.30059 28.986ZM10.6224 29.3794C10.579 29.5198 10.3775 29.5836 10.1746 29.5239C9.97188 29.4625 9.83923 29.2981 9.88018 29.1563C9.92232 29.015 10.1247 28.9485 10.3292 29.0123C10.5315 29.0735 10.6645 29.2367 10.6224 29.3794ZM12.1266 29.5463C12.1316 29.6941 11.9595 29.8166 11.7464 29.8193C11.5322 29.8241 11.3589 29.7045 11.3565 29.5591C11.3565 29.4098 11.5248 29.2884 11.739 29.2849C11.9521 29.2807 12.1266 29.3994 12.1266 29.5463ZM13.6043 29.4897C13.6298 29.6339 13.4817 29.782 13.2702 29.8214C13.0621 29.8594 12.8695 29.7704 12.8431 29.6274C12.8173 29.4796 12.9681 29.3315 13.1758 29.2932C13.3877 29.2564 13.5773 29.3431 13.6043 29.4897Z" fill="white" fill-opacity="0.5"/>
</g>
<defs>
<clipPath id="clip0_12_173">
<rect width="35.84" height="35" fill="white" transform="translate(0.0800018 0.5)"/>
</clipPath>
</defs>
</svg>
