<svg width="41" height="40" viewBox="0 0 41 40" fill="none" xmlns="http://www.w3.org/2000/svg">
<g id="Instagram">
<path id="Vector" d="M14.2507 4C9.10539 4 4.92 8.18927 4.92 13.3359V26.6693C4.92 31.8146 9.10927 36 14.2559 36H27.5893C32.7346 36 36.92 31.8107 36.92 26.6641V13.3307C36.92 8.1854 32.7307 4 27.5841 4H14.2507ZM30.2533 9.33333C30.9893 9.33333 31.5867 9.93067 31.5867 10.6667C31.5867 11.4027 30.9893 12 30.2533 12C29.5173 12 28.92 11.4027 28.92 10.6667C28.92 9.93067 29.5173 9.33333 30.2533 9.33333ZM20.92 12C25.332 12 28.92 15.588 28.92 20C28.92 24.412 25.332 28 20.92 28C16.508 28 12.92 24.412 12.92 20C12.92 15.588 16.508 12 20.92 12ZM20.92 14.6667C19.5055 14.6667 18.149 15.2286 17.1488 16.2288C16.1486 17.229 15.5867 18.5855 15.5867 20C15.5867 21.4145 16.1486 22.771 17.1488 23.7712C18.149 24.7714 19.5055 25.3333 20.92 25.3333C22.3345 25.3333 23.691 24.7714 24.6912 23.7712C25.6914 22.771 26.2533 21.4145 26.2533 20C26.2533 18.5855 25.6914 17.229 24.6912 16.2288C23.691 15.2286 22.3345 14.6667 20.92 14.6667Z" fill="white" fill-opacity="0.5"/>
</g>
</svg>
