<svg width="41" height="40" viewBox="0 0 41 40" fill="none" xmlns="http://www.w3.org/2000/svg">
<g id="LinkedIn">
<path id="Vector" d="M32.08 5.33333H8.08C6.60667 5.33333 5.41333 6.52666 5.41333 7.99999V32C5.41333 33.4733 6.60667 34.6667 8.08 34.6667H32.08C33.5533 34.6667 34.7467 33.4733 34.7467 32V7.99999C34.7467 6.52666 33.5533 5.33333 32.08 5.33333ZM14.6853 29.3333H10.752V16.6773H14.6853V29.3333ZM12.6787 14.868C11.4107 14.868 10.3853 13.84 10.3853 12.5747C10.3853 11.3093 11.412 10.2827 12.6787 10.2827C13.9427 10.2827 14.9707 11.3107 14.9707 12.5747C14.9707 13.84 13.9427 14.868 12.6787 14.868ZM29.4187 29.3333H25.488V23.1787C25.488 21.7107 25.4613 19.8227 23.444 19.8227C21.3973 19.8227 21.0827 21.4213 21.0827 23.072V29.3333H17.152V16.6773H20.9253V18.4067H20.9787C21.504 17.412 22.7867 16.3627 24.7 16.3627C28.6827 16.3627 29.4187 18.984 29.4187 22.392V29.3333Z" fill="white" fill-opacity="0.5"/>
</g>
</svg>
