<svg width="1080" height="1080" viewBox="0 0 1080 1080" fill="none" xmlns="http://www.w3.org/2000/svg">
<g clip-path="url(#clip0_178_40)">
<rect width="1080" height="1080" rx="540" fill="#BCF1FF"/>
<g filter="url(#filter0_d_178_40)">
<g filter="url(#filter1_d_178_40)">
<path d="M299.488 576.047C237.393 576.382 177.511 696.335 331.099 725.738L299.488 576.047Z" fill="url(#paint0_linear_178_40)"/>
</g>
<g filter="url(#filter2_d_178_40)">
<path d="M717.351 510.225C777.529 494.764 865.396 595.628 724.09 663.129L717.351 510.225Z" fill="url(#paint1_linear_178_40)"/>
</g>
<path d="M488.361 648.967C498.615 650.347 499.983 643.889 515.705 646.896C523.225 640.438 536.213 646.896 545.1 640.685" stroke="black" stroke-width="3" stroke-linecap="round"/>
<path d="M322.244 649.657L264.821 630.331" stroke="#3C3C3C" stroke-width="5" stroke-linecap="round"/>
<path d="M766.757 558.55L721.469 599.097" stroke="#3C3C3C" stroke-width="5" stroke-linecap="round"/>
<path d="M497.246 542.676L515.703 647.587" stroke="black" stroke-width="3" stroke-linecap="round"/>
<g filter="url(#filter3_d_178_40)">
<path d="M383.634 939.407L370.593 732.018L687.725 701.811L723.884 904.552L655.716 1079.99H460.101L383.634 939.407Z" fill="url(#paint2_linear_178_40)"/>
</g>
<g filter="url(#filter4_f_178_40)">
<path d="M573.813 889.822C517.154 941.871 384.774 903.725 323.614 685.548L573.813 889.822Z" fill="#2A2A2A"/>
</g>
<g filter="url(#filter5_d_178_40)">
<path d="M431.628 836.014C388.3 797.736 342.076 766.993 331.822 726.271C223.807 357.009 340.018 272.113 522.541 272.113C658.571 281.778 621.739 326.711 641.487 361.84C684.554 438.453 688.655 401.872 711.221 479.867C746.258 600.962 725.577 667.603 725.577 667.603C725.577 667.603 706.429 755.258 624.404 856.72C568.348 914.007 489.734 893.991 469.226 871.214C459.656 862.932 448.034 850.508 431.628 836.014Z" fill="url(#paint3_linear_178_40)"/>
</g>
<g filter="url(#filter6_d_178_40)">
<path d="M297.319 534.763C306.096 558.729 308.181 584.424 308.216 592.909C293.544 575.911 273.627 568.363 273.627 568.363C273.627 568.363 236.974 536.356 241.707 469.611L235.717 498.051C149.121 304.293 490.775 106.725 588.305 256.207C705.899 188.408 771.197 368.225 741.815 436.652C740.1 426.911 734.58 418.657 732.035 415.747C740.363 453.503 731.457 484.339 719.41 504.685C701.726 514.102 699.386 529.312 690.756 533.456C682.056 524.87 679.988 484.505 681.593 476.162C648.557 458.485 636.762 432.684 635.491 421.655C667.832 430.755 680.295 425.217 682.484 421.311C588.977 433.857 603.732 315.913 561.848 334.537C542.9 311.068 499.147 290.642 474.986 356.487C446.334 434.57 408.774 450.447 390.677 451.249C415.38 431.895 425.051 383.778 418.617 375.971C412.458 424.484 353.668 469.943 325.044 486.608C328.822 479.165 327.494 455.933 322.864 449.51C327.56 485.187 307.004 522.083 297.319 534.763Z" fill="#2A2A2A"/>
</g>
<path d="M322.246 520.939C346.172 500.235 346.172 466.411 464.435 517.488M525.96 504.376C587.484 471.937 623.031 428.455 661.997 471.936" stroke="#3C3C3C" stroke-width="5" stroke-linecap="round" stroke-linejoin="round"/>
<g filter="url(#filter7_d_178_40)">
<rect width="95.7252" height="47.1318" rx="23.5659" transform="matrix(0.9885 -0.151222 0.148406 0.988927 337.286 567.504)" fill="white"/>
<path d="M368.8 602.359C359.003 588.472 360.445 571.333 367.657 564.455C369.226 562.958 371.393 562.371 373.535 562.034L398.964 558.033C403.722 557.284 408.888 558.054 411.903 561.811C419.721 571.554 418.801 586.925 415.341 596.73C413.667 601.475 409.021 604.083 404.049 604.851L384.334 607.896C378.459 608.803 372.227 607.217 368.8 602.359Z" fill="#3C3C3B"/>
</g>
<g filter="url(#filter8_d_178_40)">
<rect width="95.7252" height="47.1318" rx="23.5659" transform="matrix(0.9885 -0.151222 0.148406 0.988927 556.033 541.275)" fill="white"/>
<path d="M587.546 576.13C577.749 562.242 579.191 545.104 586.403 538.225C587.972 536.729 590.139 536.142 592.281 535.805L617.71 531.804C622.469 531.055 627.634 531.825 630.649 535.582C638.467 545.324 637.547 560.695 634.087 570.5C632.413 575.245 627.767 577.854 622.795 578.622L603.08 581.666C597.205 582.574 590.973 580.987 587.546 576.13Z" fill="#3C3C3B"/>
</g>
<g filter="url(#filter9_d_178_40)">
<path d="M297.269 582.736C295.347 582.532 293.954 580.808 294.158 578.886C294.363 576.964 296.086 575.571 298.009 575.775L297.269 582.736ZM298.009 575.775L323.985 578.536L323.246 585.497L297.269 582.736L298.009 575.775Z" fill="#2A2A2A"/>
<path d="M464.438 561.523C476.287 549.33 507.915 531.016 539.634 555.311" stroke="#2A2A2A" stroke-width="7"/>
<path d="M719.783 512.772C721.171 511.426 721.217 509.2 719.885 507.799C718.553 506.398 716.348 506.353 714.96 507.699L719.783 512.772ZM714.96 507.699L680.78 540.829L685.603 545.902L719.783 512.772L714.96 507.699Z" fill="#2A2A2A"/>
<path d="M471.875 594.44C471.875 635.174 438.578 668.243 397.444 668.243C356.311 668.243 323.014 635.174 323.014 594.44C323.014 553.706 356.311 520.637 397.444 520.637C438.578 520.637 471.875 553.706 471.875 594.44Z" stroke="#2A2A2A" stroke-width="7"/>
<path d="M686.525 564.071C686.525 604.805 653.228 637.874 612.095 637.874C570.961 637.874 537.664 604.805 537.664 564.071C537.664 523.337 570.961 490.268 612.095 490.268C653.228 490.268 686.525 523.337 686.525 564.071Z" stroke="#2A2A2A" stroke-width="7"/>
</g>
<g filter="url(#filter10_d_178_40)">
<path d="M885.458 1080L724.061 904.474L749.058 1080H885.458Z" fill="#3C4AC5"/>
</g>
<g filter="url(#filter11_d_178_40)">
<path d="M249.648 1080L383.875 939.796L352.899 1080H249.648Z" fill="#FFFF00"/>
</g>
<g filter="url(#filter12_d_178_40)">
<path d="M460.188 1079.46H352.9L383.876 939.796L460.188 1079.46Z" fill="white"/>
</g>
<g filter="url(#filter13_d_178_40)">
<path d="M655.588 1080L724.06 904.474L749.057 1080H655.588Z" fill="white"/>
</g>
</g>
<path d="M465 733.123C484.498 719.998 534.942 698.957 580.731 719.787" stroke="#3C3C3C" stroke-width="5" stroke-linecap="round"/>
<path d="M505.254 739.577C508.399 740.212 528.526 744.022 541.105 733.227" stroke="#3C3C3C" stroke-width="5" stroke-linecap="round"/>
<path d="M437.263 734.594C444.82 681.637 480.877 714.807 524.492 708.989C569.268 708.989 587.295 654.288 609.393 713.644C619.843 790.282 429.821 792.773 437.21 734.987C437.227 734.856 437.245 734.725 437.263 734.594Z" fill="white"/>
<path d="M609.393 713.644C587.295 654.288 569.268 708.989 524.492 708.989C480.877 714.807 444.82 681.637 437.263 734.594C437.245 734.725 437.227 734.856 437.21 734.987M609.393 713.644C619.843 790.282 429.821 792.773 437.21 734.987M609.393 713.644C580.323 719.462 582.649 730.518 563.458 732.846M437.21 734.987C457.039 727.027 464.599 753.795 498.327 748.558" stroke="#36271A" stroke-width="5"/>
</g>
<defs>
<filter id="filter0_d_178_40" x="171.79" y="153.672" width="763.668" height="976.328" filterUnits="userSpaceOnUse" color-interpolation-filters="sRGB">
<feFlood flood-opacity="0" result="BackgroundImageFix"/>
<feColorMatrix in="SourceAlpha" type="matrix" values="0 0 0 0 0 0 0 0 0 0 0 0 0 0 0 0 0 0 127 0" result="hardAlpha"/>
<feOffset/>
<feGaussianBlur stdDeviation="25"/>
<feComposite in2="hardAlpha" operator="out"/>
<feColorMatrix type="matrix" values="0 0 0 0 0 0 0 0 0 0 0 0 0 0 0 0 0 0 0.2 0"/>
<feBlend mode="normal" in2="BackgroundImageFix" result="effect1_dropShadow_178_40"/>
<feBlend mode="normal" in="SourceGraphic" in2="effect1_dropShadow_178_40" result="shape"/>
</filter>
<filter id="filter1_d_178_40" x="218.072" y="560.047" width="129.027" height="181.69" filterUnits="userSpaceOnUse" color-interpolation-filters="sRGB">
<feFlood flood-opacity="0" result="BackgroundImageFix"/>
<feColorMatrix in="SourceAlpha" type="matrix" values="0 0 0 0 0 0 0 0 0 0 0 0 0 0 0 0 0 0 127 0" result="hardAlpha"/>
<feOffset/>
<feGaussianBlur stdDeviation="8"/>
<feComposite in2="hardAlpha" operator="out"/>
<feColorMatrix type="matrix" values="0 0 0 0 0 0 0 0 0 0 0 0 0 0 0 0 0 0 0.25 0"/>
<feBlend mode="normal" in2="BackgroundImageFix" result="effect1_dropShadow_178_40"/>
<feBlend mode="normal" in="SourceGraphic" in2="effect1_dropShadow_178_40" result="shape"/>
</filter>
<filter id="filter2_d_178_40" x="701.352" y="492.637" width="114.747" height="186.492" filterUnits="userSpaceOnUse" color-interpolation-filters="sRGB">
<feFlood flood-opacity="0" result="BackgroundImageFix"/>
<feColorMatrix in="SourceAlpha" type="matrix" values="0 0 0 0 0 0 0 0 0 0 0 0 0 0 0 0 0 0 127 0" result="hardAlpha"/>
<feOffset/>
<feGaussianBlur stdDeviation="8"/>
<feComposite in2="hardAlpha" operator="out"/>
<feColorMatrix type="matrix" values="0 0 0 0 0 0 0 0 0 0 0 0 0 0 0 0 0 0 0.25 0"/>
<feBlend mode="normal" in2="BackgroundImageFix" result="effect1_dropShadow_178_40"/>
<feBlend mode="normal" in="SourceGraphic" in2="effect1_dropShadow_178_40" result="shape"/>
</filter>
<filter id="filter3_d_178_40" x="354.593" y="685.811" width="385.292" height="410.179" filterUnits="userSpaceOnUse" color-interpolation-filters="sRGB">
<feFlood flood-opacity="0" result="BackgroundImageFix"/>
<feColorMatrix in="SourceAlpha" type="matrix" values="0 0 0 0 0 0 0 0 0 0 0 0 0 0 0 0 0 0 127 0" result="hardAlpha"/>
<feOffset/>
<feGaussianBlur stdDeviation="8"/>
<feComposite in2="hardAlpha" operator="out"/>
<feColorMatrix type="matrix" values="0 0 0 0 0 0 0 0 0 0 0 0 0 0 0 0 0 0 0.25 0"/>
<feBlend mode="normal" in2="BackgroundImageFix" result="effect1_dropShadow_178_40"/>
<feBlend mode="normal" in="SourceGraphic" in2="effect1_dropShadow_178_40" result="shape"/>
</filter>
<filter id="filter4_f_178_40" x="321.614" y="683.548" width="254.198" height="229.008" filterUnits="userSpaceOnUse" color-interpolation-filters="sRGB">
<feFlood flood-opacity="0" result="BackgroundImageFix"/>
<feBlend mode="normal" in="SourceGraphic" in2="BackgroundImageFix" result="shape"/>
<feGaussianBlur stdDeviation="1" result="effect1_foregroundBlur_178_40"/>
</filter>
<filter id="filter5_d_178_40" x="274.25" y="256.113" width="473.389" height="653.913" filterUnits="userSpaceOnUse" color-interpolation-filters="sRGB">
<feFlood flood-opacity="0" result="BackgroundImageFix"/>
<feColorMatrix in="SourceAlpha" type="matrix" values="0 0 0 0 0 0 0 0 0 0 0 0 0 0 0 0 0 0 127 0" result="hardAlpha"/>
<feOffset/>
<feGaussianBlur stdDeviation="8"/>
<feComposite in2="hardAlpha" operator="out"/>
<feColorMatrix type="matrix" values="0 0 0 0 0 0 0 0 0 0 0 0 0 0 0 0 0 0 0.25 0"/>
<feBlend mode="normal" in2="BackgroundImageFix" result="effect1_dropShadow_178_40"/>
<feBlend mode="normal" in="SourceGraphic" in2="effect1_dropShadow_178_40" result="shape"/>
</filter>
<filter id="filter6_d_178_40" x="201.79" y="185.672" width="567.03" height="429.236" filterUnits="userSpaceOnUse" color-interpolation-filters="sRGB">
<feFlood flood-opacity="0" result="BackgroundImageFix"/>
<feColorMatrix in="SourceAlpha" type="matrix" values="0 0 0 0 0 0 0 0 0 0 0 0 0 0 0 0 0 0 127 0" result="hardAlpha"/>
<feOffset dy="2"/>
<feGaussianBlur stdDeviation="10"/>
<feComposite in2="hardAlpha" operator="out"/>
<feColorMatrix type="matrix" values="0 0 0 0 0 0 0 0 0 0 0 0 0 0 0 0 0 0 0.2 0"/>
<feBlend mode="normal" in2="BackgroundImageFix" result="effect1_dropShadow_178_40"/>
<feBlend mode="normal" in="SourceGraphic" in2="effect1_dropShadow_178_40" result="shape"/>
</filter>
<filter id="filter7_d_178_40" x="332.52" y="548.317" width="111.152" height="70.5068" filterUnits="userSpaceOnUse" color-interpolation-filters="sRGB">
<feFlood flood-opacity="0" result="BackgroundImageFix"/>
<feColorMatrix in="SourceAlpha" type="matrix" values="0 0 0 0 0 0 0 0 0 0 0 0 0 0 0 0 0 0 127 0" result="hardAlpha"/>
<feOffset/>
<feGaussianBlur stdDeviation="4"/>
<feComposite in2="hardAlpha" operator="out"/>
<feColorMatrix type="matrix" values="0 0 0 0 0 0 0 0 0 0 0 0 0 0 0 0 0 0 0.2 0"/>
<feBlend mode="normal" in2="BackgroundImageFix" result="effect1_dropShadow_178_40"/>
<feBlend mode="normal" in="SourceGraphic" in2="effect1_dropShadow_178_40" result="shape"/>
</filter>
<filter id="filter8_d_178_40" x="551.267" y="522.089" width="111.152" height="70.5068" filterUnits="userSpaceOnUse" color-interpolation-filters="sRGB">
<feFlood flood-opacity="0" result="BackgroundImageFix"/>
<feColorMatrix in="SourceAlpha" type="matrix" values="0 0 0 0 0 0 0 0 0 0 0 0 0 0 0 0 0 0 127 0" result="hardAlpha"/>
<feOffset/>
<feGaussianBlur stdDeviation="4"/>
<feComposite in2="hardAlpha" operator="out"/>
<feColorMatrix type="matrix" values="0 0 0 0 0 0 0 0 0 0 0 0 0 0 0 0 0 0 0.2 0"/>
<feBlend mode="normal" in2="BackgroundImageFix" result="effect1_dropShadow_178_40"/>
<feBlend mode="normal" in="SourceGraphic" in2="effect1_dropShadow_178_40" result="shape"/>
</filter>
<filter id="filter9_d_178_40" x="278.139" y="471.768" width="458.716" height="216.976" filterUnits="userSpaceOnUse" color-interpolation-filters="sRGB">
<feFlood flood-opacity="0" result="BackgroundImageFix"/>
<feColorMatrix in="SourceAlpha" type="matrix" values="0 0 0 0 0 0 0 0 0 0 0 0 0 0 0 0 0 0 127 0" result="hardAlpha"/>
<feOffset dy="1"/>
<feGaussianBlur stdDeviation="8"/>
<feComposite in2="hardAlpha" operator="out"/>
<feColorMatrix type="matrix" values="0 0 0 0 0 0 0 0 0 0 0 0 0 0 0 0 0 0 0.25 0"/>
<feBlend mode="normal" in2="BackgroundImageFix" result="effect1_dropShadow_178_40"/>
<feBlend mode="normal" in="SourceGraphic" in2="effect1_dropShadow_178_40" result="shape"/>
</filter>
<filter id="filter10_d_178_40" x="708.061" y="888.474" width="193.397" height="207.526" filterUnits="userSpaceOnUse" color-interpolation-filters="sRGB">
<feFlood flood-opacity="0" result="BackgroundImageFix"/>
<feColorMatrix in="SourceAlpha" type="matrix" values="0 0 0 0 0 0 0 0 0 0 0 0 0 0 0 0 0 0 127 0" result="hardAlpha"/>
<feOffset/>
<feGaussianBlur stdDeviation="8"/>
<feComposite in2="hardAlpha" operator="out"/>
<feColorMatrix type="matrix" values="0 0 0 0 0 0 0 0 0 0 0 0 0 0 0 0 0 0 0.25 0"/>
<feBlend mode="normal" in2="BackgroundImageFix" result="effect1_dropShadow_178_40"/>
<feBlend mode="normal" in="SourceGraphic" in2="effect1_dropShadow_178_40" result="shape"/>
</filter>
<filter id="filter11_d_178_40" x="233.648" y="923.796" width="166.227" height="172.204" filterUnits="userSpaceOnUse" color-interpolation-filters="sRGB">
<feFlood flood-opacity="0" result="BackgroundImageFix"/>
<feColorMatrix in="SourceAlpha" type="matrix" values="0 0 0 0 0 0 0 0 0 0 0 0 0 0 0 0 0 0 127 0" result="hardAlpha"/>
<feOffset/>
<feGaussianBlur stdDeviation="8"/>
<feComposite in2="hardAlpha" operator="out"/>
<feColorMatrix type="matrix" values="0 0 0 0 0 0 0 0 0 0 0 0 0 0 0 0 0 0 0.25 0"/>
<feBlend mode="normal" in2="BackgroundImageFix" result="effect1_dropShadow_178_40"/>
<feBlend mode="normal" in="SourceGraphic" in2="effect1_dropShadow_178_40" result="shape"/>
</filter>
<filter id="filter12_d_178_40" x="336.9" y="923.796" width="139.287" height="171.66" filterUnits="userSpaceOnUse" color-interpolation-filters="sRGB">
<feFlood flood-opacity="0" result="BackgroundImageFix"/>
<feColorMatrix in="SourceAlpha" type="matrix" values="0 0 0 0 0 0 0 0 0 0 0 0 0 0 0 0 0 0 127 0" result="hardAlpha"/>
<feOffset/>
<feGaussianBlur stdDeviation="8"/>
<feComposite in2="hardAlpha" operator="out"/>
<feColorMatrix type="matrix" values="0 0 0 0 0 0 0 0 0 0 0 0 0 0 0 0 0 0 0.25 0"/>
<feBlend mode="normal" in2="BackgroundImageFix" result="effect1_dropShadow_178_40"/>
<feBlend mode="normal" in="SourceGraphic" in2="effect1_dropShadow_178_40" result="shape"/>
</filter>
<filter id="filter13_d_178_40" x="639.588" y="888.474" width="125.469" height="207.526" filterUnits="userSpaceOnUse" color-interpolation-filters="sRGB">
<feFlood flood-opacity="0" result="BackgroundImageFix"/>
<feColorMatrix in="SourceAlpha" type="matrix" values="0 0 0 0 0 0 0 0 0 0 0 0 0 0 0 0 0 0 127 0" result="hardAlpha"/>
<feOffset/>
<feGaussianBlur stdDeviation="8"/>
<feComposite in2="hardAlpha" operator="out"/>
<feColorMatrix type="matrix" values="0 0 0 0 0 0 0 0 0 0 0 0 0 0 0 0 0 0 0.25 0"/>
<feBlend mode="normal" in2="BackgroundImageFix" result="effect1_dropShadow_178_40"/>
<feBlend mode="normal" in="SourceGraphic" in2="effect1_dropShadow_178_40" result="shape"/>
</filter>
<linearGradient id="paint0_linear_178_40" x1="206.656" y1="638.87" x2="393.067" y2="659.627" gradientUnits="userSpaceOnUse">
<stop stop-color="#DA9665"/>
<stop offset="1" stop-color="#B0784F"/>
</linearGradient>
<linearGradient id="paint1_linear_178_40" x1="822.859" y1="547.424" x2="647.346" y2="614.147" gradientUnits="userSpaceOnUse">
<stop stop-color="#DA9665"/>
<stop offset="1" stop-color="#B0784F"/>
</linearGradient>
<linearGradient id="paint2_linear_178_40" x1="285.549" y1="920.046" x2="870.467" y2="855.581" gradientUnits="userSpaceOnUse">
<stop stop-color="#DA9665"/>
<stop offset="1" stop-color="#B0784F"/>
</linearGradient>
<linearGradient id="paint3_linear_178_40" x1="510.944" y1="272.113" x2="510.944" y2="894.027" gradientUnits="userSpaceOnUse">
<stop stop-color="#DA905C"/>
<stop offset="1" stop-color="#BB7D51"/>
</linearGradient>
<clipPath id="clip0_178_40">
<rect width="1080" height="1080" rx="540" fill="white"/>
</clipPath>
</defs>
</svg>
