<svg width="28" height="25" viewBox="0 0 28 25" fill="none" xmlns="http://www.w3.org/2000/svg">
<path d="M17.5 16.875C17.5 17.3584 17.1084 17.75 16.625 17.75H11.375C10.8916 17.75 10.5 17.3584 10.5 16.875V14.25H0V22.125C0 23.525 1.225 24.75 2.625 24.75H25.375C26.775 24.75 28 23.525 28 22.125V14.25H17.5V16.875ZM25.375 5.5H21V2.875C21 1.475 19.775 0.25 18.375 0.25H9.625C8.225 0.25 7 1.475 7 2.875V5.5H2.625C1.225 5.5 0 6.725 0 8.125V12.5H28V8.125C28 6.725 26.775 5.5 25.375 5.5ZM17.5 5.5H10.5V3.75H17.5V5.5Z" fill="white"/>
</svg>
