<svg width="32" height="33" viewBox="0 0 32 33" fill="none" xmlns="http://www.w3.org/2000/svg">
<path d="M16 15.1667C16.7333 15.1667 17.3613 14.9058 17.884 14.384C18.4067 13.8622 18.6676 13.2342 18.6667 12.5C18.6658 11.7658 18.4049 11.1382 17.884 10.6173C17.3631 10.0964 16.7351 9.83511 16 9.83333C15.2649 9.83156 14.6373 10.0929 14.1173 10.6173C13.5973 11.1418 13.336 11.7693 13.3333 12.5C13.3307 13.2307 13.592 13.8587 14.1173 14.384C14.6427 14.9093 15.2702 15.1702 16 15.1667ZM9.33333 14.9V9.83333H6.66667V11.1667C6.66667 12.0111 6.91111 12.7724 7.4 13.4507C7.88889 14.1289 8.53333 14.612 9.33333 14.9ZM22.6667 14.9C23.4667 14.6111 24.1111 14.1276 24.6 13.4493C25.0889 12.7711 25.3333 12.0102 25.3333 11.1667V9.83333H22.6667V14.9ZM14.6667 25.8333V21.7C13.5778 21.4556 12.6058 20.9947 11.7507 20.3173C10.8956 19.64 10.2676 18.7898 9.86667 17.7667C8.2 17.5667 6.80578 16.8391 5.684 15.584C4.56222 14.3289 4.00089 12.8564 4 11.1667V9.83333C4 9.1 4.26133 8.47244 4.784 7.95067C5.30667 7.42889 5.93422 7.16756 6.66667 7.16667H9.33333C9.33333 6.43333 9.59467 5.80578 10.1173 5.284C10.64 4.76222 11.2676 4.50089 12 4.5H20C20.7333 4.5 21.3613 4.76133 21.884 5.284C22.4067 5.80667 22.6676 6.43422 22.6667 7.16667H25.3333C26.0667 7.16667 26.6947 7.428 27.2173 7.95067C27.74 8.47333 28.0009 9.10089 28 9.83333V11.1667C28 12.8556 27.4387 14.328 26.316 15.584C25.1933 16.84 23.7991 17.5676 22.1333 17.7667C21.7333 18.7889 21.1058 19.6391 20.2507 20.3173C19.3956 20.9956 18.4231 21.4564 17.3333 21.7V25.8333H21.3333C21.7111 25.8333 22.028 25.9613 22.284 26.2173C22.54 26.4733 22.6676 26.7898 22.6667 27.1667C22.6658 27.5436 22.5378 27.8604 22.2827 28.1173C22.0276 28.3742 21.7111 28.5018 21.3333 28.5H10.6667C10.2889 28.5 9.97244 28.372 9.71733 28.116C9.46222 27.86 9.33422 27.5436 9.33333 27.1667C9.33244 26.7898 9.46044 26.4733 9.71733 26.2173C9.97422 25.9613 10.2907 25.8333 10.6667 25.8333H14.6667Z" fill="white"/>
</svg>
