<svg width="32" height="33" viewBox="0 0 32 33" fill="none" xmlns="http://www.w3.org/2000/svg">
<path d="M6.66671 18.0733V21.82C6.66671 22.7933 7.20004 23.7 8.05337 24.1667L14.72 27.8067C15.52 28.2467 16.48 28.2467 17.28 27.8067L23.9467 24.1667C24.8 23.7 25.3334 22.7933 25.3334 21.82V18.0733L17.28 22.4733C16.48 22.9133 15.52 22.9133 14.72 22.4733L6.66671 18.0733ZM14.72 5.19334L3.48004 11.3267C2.56004 11.8333 2.56004 13.1667 3.48004 13.6733L14.72 19.8067C15.52 20.2467 16.48 20.2467 17.28 19.8067L28 13.9533V21.8333C28 22.5667 28.6 23.1667 29.3334 23.1667C30.0667 23.1667 30.6667 22.5667 30.6667 21.8333V13.2867C30.6667 12.7933 30.4 12.3533 29.9734 12.1133L17.28 5.19334C16.48 4.76667 15.52 4.76667 14.72 5.19334Z" fill="white"/>
</svg>
