<svg width="32" height="33" viewBox="0 0 32 33" fill="none" xmlns="http://www.w3.org/2000/svg">
<path d="M16 15.8333C15.116 15.8333 14.2681 15.4821 13.643 14.857C13.0179 14.2319 12.6667 13.3841 12.6667 12.5C12.6667 11.6159 13.0179 10.7681 13.643 10.143C14.2681 9.51785 15.116 9.16666 16 9.16666C16.8841 9.16666 17.7319 9.51785 18.357 10.143C18.9822 10.7681 19.3334 11.6159 19.3334 12.5C19.3334 12.9377 19.2471 13.3712 19.0796 13.7756C18.9121 14.18 18.6666 14.5475 18.357 14.857C18.0475 15.1665 17.6801 15.4121 17.2756 15.5796C16.8712 15.7471 16.4378 15.8333 16 15.8333ZM16 3.16666C13.5247 3.16666 11.1507 4.14999 9.40036 5.90033C7.65002 7.65067 6.66669 10.0246 6.66669 12.5C6.66669 19.5 16 29.8333 16 29.8333C16 29.8333 25.3334 19.5 25.3334 12.5C25.3334 10.0246 24.35 7.65067 22.5997 5.90033C20.8493 4.14999 18.4754 3.16666 16 3.16666Z" fill="white"/>
</svg>
