<svg xmlns="http://www.w3.org/2000/svg" width="21" height="20" viewBox="0 0 21 20" fill="none">
  <path d="M18.75 7.373V14.5C18.75 15.163 18.4866 15.7989 18.0178 16.2678C17.5489 16.7366 16.913 17 16.25 17H5.25C4.58696 17 3.95107 16.7366 3.48223 16.2678C3.01339 15.7989 2.75 15.163 2.75 14.5V7.373L10.496 11.931C10.573 11.9764 10.6607 12.0003 10.75 12.0003C10.8393 12.0003 10.927 11.9764 11.004 11.931L18.75 7.373ZM16.25 4C16.8651 3.9999 17.4587 4.22661 17.9172 4.63674C18.3757 5.04687 18.6668 5.61164 18.735 6.223L10.75 10.92L2.765 6.223C2.83316 5.61164 3.12432 5.04687 3.58279 4.63674C4.04127 4.22661 4.63485 3.9999 5.25 4H16.25Z" fill="white"/>
</svg>