<svg width="19" height="20" viewBox="0 0 19 20" fill="none" xmlns="http://www.w3.org/2000/svg">
<g clip-path="url(#clip0_13_341)">
<path d="M15.6289 3.79297C13.9922 2.15234 11.8125 1.25 9.49609 1.25C4.71484 1.25 0.824219 5.14063 0.824219 9.92188C0.824219 11.4492 1.22266 12.9414 1.98047 14.2578L0.75 18.75L5.34766 17.543C6.61328 18.2344 8.03906 18.5977 9.49219 18.5977H9.49609C14.2734 18.5977 18.25 14.707 18.25 9.92578C18.25 7.60938 17.2656 5.43359 15.6289 3.79297ZM9.49609 17.1367C8.19922 17.1367 6.92969 16.7891 5.82422 16.1328L5.5625 15.9766L2.83594 16.6914L3.5625 14.0313L3.39063 13.7578C2.66797 12.6094 2.28906 11.2852 2.28906 9.92188C2.28906 5.94922 5.52344 2.71484 9.5 2.71484C11.4258 2.71484 13.2344 3.46484 14.5938 4.82813C15.9531 6.19141 16.7891 8 16.7852 9.92578C16.7852 13.9023 13.4688 17.1367 9.49609 17.1367ZM13.4492 11.7383C13.2344 11.6289 12.168 11.1055 11.9688 11.0352C11.7695 10.9609 11.625 10.9258 11.4805 11.1445C11.3359 11.3633 10.9219 11.8477 10.793 11.9961C10.668 12.1406 10.5391 12.1602 10.3242 12.0508C9.05078 11.4141 8.21484 10.9141 7.375 9.47266C7.15234 9.08984 7.59766 9.11719 8.01172 8.28906C8.08203 8.14453 8.04688 8.01953 7.99219 7.91016C7.9375 7.80078 7.50391 6.73438 7.32422 6.30078C7.14844 5.87891 6.96875 5.9375 6.83594 5.92969C6.71094 5.92188 6.56641 5.92188 6.42188 5.92188C6.27734 5.92188 6.04297 5.97656 5.84375 6.19141C5.64453 6.41016 5.08594 6.93359 5.08594 8C5.08594 9.06641 5.86328 10.0977 5.96875 10.2422C6.07813 10.3867 7.49609 12.5742 9.67188 13.5156C11.0469 14.1094 11.5859 14.1602 12.2734 14.0586C12.6914 13.9961 13.5547 13.5352 13.7344 13.0273C13.9141 12.5195 13.9141 12.0859 13.8594 11.9961C13.8086 11.8984 13.6641 11.8438 13.4492 11.7383Z" fill="white"/>
</g>
<defs>
<clipPath id="clip0_13_341">
<rect width="17.5" height="20" fill="white" transform="translate(0.75)"/>
</clipPath>
</defs>
</svg>
